<?xml version="1.0" encoding="UTF-8"?>
<svg width="13px" height="15px" viewBox="0 0 13 15" version="1.1" xmlns="http://www.w3.org/2000/svg" xmlns:xlink="http://www.w3.org/1999/xlink">
    <title>icon-calendar</title>
    <g id="Page-1" stroke="none" stroke-width="1" fill="none" fill-rule="evenodd">
        <g id="icon-calendar" fill="#666" fill-rule="nonzero">
            <path d="M11.7,1.36363637 L11.05,1.36363637 L11.05,0 L9.75,0 L9.75,1.36363637 L3.25,1.36363637 L3.25,0 L1.95,0 L1.95,1.36363637 L1.3,1.36363637 C0.585,1.36363637 0,1.97727273 0,2.72727273 L0,13.6363637 C0,14.3863637 0.585,15 1.3,15 L11.7,15 C12.415,15 13,14.3863637 13,13.6363637 L13,2.72727273 C13,1.97727273 12.415,1.36363637 11.7,1.36363637 Z M11.7,13.6363636 L1.3,13.6363636 L1.3,6.13636363 L11.7,6.13636363 L11.7,13.6363636 Z M11.7,4.77272727 L1.3,4.77272727 L1.3,2.72727273 L11.7,2.72727273 L11.7,4.77272727 Z" id="Shape"></path>
        </g>
    </g>
</svg>